<svg xmlns="http://www.w3.org/2000/svg" viewBox="0 0 260 260" fill="none">
  <defs>
    <linearGradient id="sil" x1="0" y1="0" x2="0" y2="1">
      <stop offset="0" stop-color="#ffffff"/>
      <stop offset="0.5" stop-color="#e7ebf1"/>
      <stop offset="1" stop-color="#b9c0cc"/>
    </linearGradient>
    <linearGradient id="silv2" x1="0" y1="0" x2="1" y2="1">
      <stop offset="0" stop-color="#ffffff"/>
      <stop offset="1" stop-color="#c7cdd8"/>
    </linearGradient>
  </defs>
  <path d="M130.00 81.01 L130.00 80.93 L130.01 80.71 L130.04 80.33 L130.10 79.80 L130.19 79.13 L130.33 78.33 L130.53 77.39 L130.78 76.33 L131.11 75.15 L131.51 73.87 L131.99 72.50 L132.57 71.04 L133.24 69.51 L134.00 67.91 L134.88 66.28 L135.85 64.61 L136.94 62.91 L138.14 61.22 L139.45 59.53 L140.88 57.86 L142.41 56.22 L144.06 54.63 L145.81 53.11 L147.67 51.65 L149.63 50.28 L151.68 49.01 L153.83 47.85 L156.06 46.80 L158.38 45.88 L160.76 45.09 L163.21 44.44 L165.71 43.94 L168.25 43.59 L170.83 43.40 L173.44 43.37 L176.07 43.51 L178.70 43.80 L181.32 44.26 L183.93 44.88 L186.51 45.67 L189.05 46.61 L191.54 47.70 L193.97 48.95 L196.33 50.34 L198.61 51.88 L200.79 53.54 L202.87 55.33 L204.84 57.24 L206.69 59.26 L208.41 61.39 L209.99 63.61 L211.42 65.91 L212.70 68.29 L213.83 70.74 L214.79 73.26 L215.58 75.82 L216.20 78.43 L216.64 81.08 L216.91 83.75 L217.00 86.45 L216.91 89.16 L216.64 91.88 L216.20 94.60 L215.58 97.32 L214.79 100.03 L213.83 102.73 L212.70 105.42 L211.42 108.09 L209.99 110.73 L208.41 113.36 L206.69 115.95 L204.84 118.52 L202.87 121.07 L200.79 123.58 L198.61 126.07 L196.33 128.53 L193.97 130.96 L191.54 133.37 L189.05 135.75 L186.51 138.10 L183.93 140.43 L181.32 142.74 L178.70 145.03 L176.07 147.29 L173.44 149.53 L170.83 151.75 L168.25 153.95 L165.71 156.13 L163.21 158.29 L160.76 160.43 L158.38 162.55 L156.06 164.64 L153.83 166.71 L151.68 168.75 L149.63 170.77 L147.67 172.75 L145.81 174.69 L144.06 176.60 L142.41 178.47 L140.88 180.29 L139.45 182.06 L138.14 183.78 L136.94 185.44 L135.85 187.04 L134.88 188.57 L134.00 190.03 L133.24 191.41 L132.57 192.71 L131.99 193.92 L131.51 195.05 L131.11 196.08 L130.78 197.02 L130.53 197.85 L130.33 198.58 L130.19 199.20 L130.10 199.72 L130.04 200.12 L130.01 200.40 L130.00 200.58 L130.00 200.64 L130.00 200.58 L129.99 200.40 L129.96 200.12 L129.90 199.72 L129.81 199.20 L129.67 198.58 L129.47 197.85 L129.22 197.02 L128.89 196.08 L128.49 195.05 L128.01 193.92 L127.43 192.71 L126.76 191.41 L126.00 190.03 L125.12 188.57 L124.15 187.04 L123.06 185.44 L121.86 183.78 L120.55 182.06 L119.13 180.29 L117.59 178.47 L115.94 176.60 L114.19 174.69 L112.33 172.75 L110.37 170.77 L108.32 168.75 L106.17 166.71 L103.94 164.64 L101.62 162.55 L99.24 160.43 L96.79 158.29 L94.29 156.13 L91.75 153.95 L89.17 151.75 L86.56 149.53 L83.93 147.29 L81.30 145.03 L78.68 142.74 L76.07 140.43 L73.49 138.10 L70.95 135.75 L68.46 133.37 L66.03 130.96 L63.67 128.53 L61.39 126.07 L59.21 123.58 L57.13 121.07 L55.16 118.52 L53.31 115.95 L51.59 113.36 L50.01 110.73 L48.58 108.09 L47.30 105.42 L46.17 102.73 L45.21 100.03 L44.42 97.32 L43.80 94.60 L43.36 91.88 L43.09 89.16 L43.00 86.45 L43.09 83.75 L43.36 81.08 L43.80 78.43 L44.42 75.82 L45.21 73.26 L46.17 70.74 L47.30 68.29 L48.58 65.91 L50.01 63.61 L51.59 61.39 L53.31 59.26 L55.16 57.24 L57.13 55.33 L59.21 53.54 L61.39 51.88 L63.67 50.34 L66.03 48.95 L68.46 47.70 L70.95 46.61 L73.49 45.67 L76.07 44.88 L78.68 44.26 L81.30 43.80 L83.93 43.51 L86.56 43.37 L89.17 43.40 L91.75 43.59 L94.29 43.94 L96.79 44.44 L99.24 45.09 L101.62 45.88 L103.94 46.80 L106.17 47.85 L108.32 49.01 L110.37 50.28 L112.33 51.65 L114.19 53.11 L115.94 54.63 L117.59 56.22 L119.13 57.86 L120.55 59.53 L121.86 61.22 L123.06 62.91 L124.15 64.61 L125.12 66.28 L126.00 67.91 L126.76 69.51 L127.43 71.04 L128.01 72.50 L128.49 73.87 L128.89 75.15 L129.22 76.33 L129.47 77.39 L129.67 78.33 L129.81 79.13 L129.90 79.80 L129.96 80.33 L129.99 80.71 L130.00 80.93 L130.00 81.01 Z" stroke="url(#sil)" stroke-width="3.4" fill="none"/>
  <path d="M130.00 97.26 L130.00 97.22 L130.01 97.08 L130.03 96.85 L130.06 96.53 L130.12 96.13 L130.20 95.64 L130.32 95.08 L130.47 94.44 L130.67 93.73 L130.91 92.96 L131.20 92.13 L131.55 91.25 L131.95 90.32 L132.42 89.36 L132.94 88.37 L133.53 87.37 L134.19 86.34 L134.91 85.32 L135.70 84.30 L136.56 83.29 L137.49 82.31 L138.48 81.35 L139.54 80.43 L140.66 79.55 L141.84 78.72 L143.09 77.95 L144.38 77.25 L145.73 76.62 L147.12 76.06 L148.56 75.59 L150.04 75.20 L151.55 74.89 L153.08 74.69 L154.64 74.57 L156.22 74.55 L157.80 74.63 L159.39 74.81 L160.97 75.09 L162.54 75.46 L164.10 75.94 L165.63 76.50 L167.14 77.17 L168.60 77.92 L170.03 78.76 L171.40 79.68 L172.72 80.69 L173.97 81.77 L175.16 82.92 L176.28 84.14 L177.31 85.42 L178.27 86.76 L179.13 88.15 L179.91 89.59 L180.58 91.07 L181.16 92.59 L181.64 94.13 L182.02 95.71 L182.28 97.31 L182.45 98.92 L182.50 100.55 L182.45 102.18 L182.28 103.82 L182.02 105.47 L181.64 107.11 L181.16 108.74 L180.58 110.37 L179.91 112.00 L179.13 113.60 L178.27 115.20 L177.31 116.78 L176.28 118.35 L175.16 119.90 L173.97 121.44 L172.72 122.96 L171.40 124.46 L170.03 125.94 L168.60 127.41 L167.14 128.86 L165.63 130.30 L164.10 131.72 L162.54 133.12 L160.97 134.52 L159.39 135.89 L157.80 137.26 L156.22 138.61 L154.64 139.95 L153.08 141.28 L151.55 142.60 L150.04 143.90 L148.56 145.19 L147.12 146.47 L145.73 147.73 L144.38 148.98 L143.09 150.21 L141.84 151.43 L140.66 152.62 L139.54 153.80 L138.48 154.95 L137.49 156.08 L136.56 157.17 L135.70 158.24 L134.91 159.28 L134.19 160.28 L133.53 161.25 L132.94 162.17 L132.42 163.05 L131.95 163.88 L131.55 164.67 L131.20 165.40 L130.91 166.08 L130.67 166.71 L130.47 167.27 L130.32 167.77 L130.20 168.21 L130.12 168.59 L130.06 168.90 L130.03 169.14 L130.01 169.31 L130.00 169.42 L130.00 169.45 L130.00 169.42 L129.99 169.31 L129.97 169.14 L129.94 168.90 L129.88 168.59 L129.80 168.21 L129.68 167.77 L129.53 167.27 L129.33 166.71 L129.09 166.08 L128.80 165.40 L128.45 164.67 L128.05 163.88 L127.58 163.05 L127.06 162.17 L126.47 161.25 L125.81 160.28 L125.09 159.28 L124.30 158.24 L123.44 157.17 L122.51 156.08 L121.52 154.95 L120.46 153.80 L119.34 152.62 L118.16 151.43 L116.91 150.21 L115.62 148.98 L114.27 147.73 L112.88 146.47 L111.44 145.19 L109.96 143.90 L108.45 142.60 L106.92 141.28 L105.36 139.95 L103.78 138.61 L102.20 137.26 L100.61 135.89 L99.03 134.52 L97.46 133.12 L95.90 131.72 L94.37 130.30 L92.86 128.86 L91.40 127.41 L89.97 125.94 L88.60 124.46 L87.28 122.96 L86.03 121.44 L84.84 119.90 L83.72 118.35 L82.69 116.78 L81.73 115.20 L80.87 113.60 L80.09 112.00 L79.42 110.37 L78.84 108.74 L78.36 107.11 L77.98 105.47 L77.72 103.82 L77.55 102.18 L77.50 100.55 L77.55 98.92 L77.72 97.31 L77.98 95.71 L78.36 94.13 L78.84 92.59 L79.42 91.07 L80.09 89.59 L80.87 88.15 L81.73 86.76 L82.69 85.42 L83.72 84.14 L84.84 82.92 L86.03 81.77 L87.28 80.69 L88.60 79.68 L89.97 78.76 L91.40 77.92 L92.86 77.17 L94.37 76.50 L95.90 75.94 L97.46 75.46 L99.03 75.09 L100.61 74.81 L102.20 74.63 L103.78 74.55 L105.36 74.57 L106.92 74.69 L108.45 74.89 L109.96 75.20 L111.44 75.59 L112.88 76.06 L114.27 76.62 L115.62 77.25 L116.91 77.95 L118.16 78.72 L119.34 79.55 L120.46 80.43 L121.52 81.35 L122.51 82.31 L123.44 83.29 L124.30 84.30 L125.09 85.32 L125.81 86.34 L126.47 87.37 L127.06 88.37 L127.58 89.36 L128.05 90.32 L128.45 91.25 L128.80 92.13 L129.09 92.96 L129.33 93.73 L129.53 94.44 L129.68 95.08 L129.80 95.64 L129.88 96.13 L129.94 96.53 L129.97 96.85 L129.99 97.08 L130.00 97.22 L130.00 97.26 Z" stroke="url(#sil)" stroke-width="3.0" fill="none"/>
  <circle cx="130.00" cy="86.66" r="8.2" fill="url(#sil)"/>
  <circle cx="127.90" cy="84.26" r="2.79" fill="#ffffff" opacity="0.9"/>
  <circle cx="136.51" cy="70.30" r="8.2" fill="url(#sil)"/>
  <circle cx="134.41" cy="67.90" r="2.79" fill="#ffffff" opacity="0.9"/>
  <circle cx="149.57" cy="58.58" r="8.2" fill="url(#sil)"/>
  <circle cx="147.47" cy="56.18" r="2.79" fill="#ffffff" opacity="0.9"/>
  <circle cx="166.64" cy="54.21" r="8.2" fill="url(#sil)"/>
  <circle cx="164.54" cy="51.81" r="2.79" fill="#ffffff" opacity="0.9"/>
  <circle cx="183.73" cy="58.28" r="8.2" fill="url(#sil)"/>
  <circle cx="181.63" cy="55.88" r="2.79" fill="#ffffff" opacity="0.9"/>
  <circle cx="197.36" cy="69.45" r="8.2" fill="url(#sil)"/>
  <circle cx="195.26" cy="67.05" r="2.79" fill="#ffffff" opacity="0.9"/>
  <circle cx="204.50" cy="85.44" r="8.2" fill="url(#sil)"/>
  <circle cx="202.40" cy="83.04" r="2.79" fill="#ffffff" opacity="0.9"/>
  <circle cx="203.12" cy="102.97" r="8.2" fill="url(#sil)"/>
  <circle cx="201.02" cy="100.57" r="2.79" fill="#ffffff" opacity="0.9"/>
  <circle cx="194.78" cy="118.65" r="8.2" fill="url(#sil)"/>
  <circle cx="192.68" cy="116.25" r="2.79" fill="#ffffff" opacity="0.9"/>
  <circle cx="183.05" cy="131.80" r="8.2" fill="url(#sil)"/>
  <circle cx="180.95" cy="129.40" r="2.79" fill="#ffffff" opacity="0.9"/>
  <circle cx="169.89" cy="143.65" r="8.2" fill="url(#sil)"/>
  <circle cx="167.79" cy="141.25" r="2.79" fill="#ffffff" opacity="0.9"/>
  <circle cx="156.35" cy="155.28" r="8.2" fill="url(#sil)"/>
  <circle cx="154.25" cy="152.88" r="2.79" fill="#ffffff" opacity="0.9"/>
  <circle cx="143.57" cy="167.49" r="8.2" fill="url(#sil)"/>
  <circle cx="141.47" cy="165.09" r="2.79" fill="#ffffff" opacity="0.9"/>
  <circle cx="132.97" cy="181.51" r="8.2" fill="url(#sil)"/>
  <circle cx="130.87" cy="179.11" r="2.79" fill="#ffffff" opacity="0.9"/>
  <circle cx="126.98" cy="181.41" r="8.2" fill="url(#sil)"/>
  <circle cx="124.88" cy="179.01" r="2.79" fill="#ffffff" opacity="0.9"/>
  <circle cx="116.31" cy="167.36" r="8.2" fill="url(#sil)"/>
  <circle cx="114.21" cy="164.96" r="2.79" fill="#ffffff" opacity="0.9"/>
  <circle cx="103.48" cy="155.13" r="8.2" fill="url(#sil)"/>
  <circle cx="101.38" cy="152.73" r="2.79" fill="#ffffff" opacity="0.9"/>
  <circle cx="89.92" cy="143.49" r="8.2" fill="url(#sil)"/>
  <circle cx="87.82" cy="141.09" r="2.79" fill="#ffffff" opacity="0.9"/>
  <circle cx="76.78" cy="131.64" r="8.2" fill="url(#sil)"/>
  <circle cx="74.68" cy="129.24" r="2.79" fill="#ffffff" opacity="0.9"/>
  <circle cx="65.09" cy="118.47" r="8.2" fill="url(#sil)"/>
  <circle cx="62.99" cy="116.07" r="2.79" fill="#ffffff" opacity="0.9"/>
  <circle cx="56.82" cy="102.78" r="8.2" fill="url(#sil)"/>
  <circle cx="54.72" cy="100.38" r="2.79" fill="#ffffff" opacity="0.9"/>
  <circle cx="55.54" cy="85.26" r="8.2" fill="url(#sil)"/>
  <circle cx="53.44" cy="82.86" r="2.79" fill="#ffffff" opacity="0.9"/>
  <circle cx="62.75" cy="69.30" r="8.2" fill="url(#sil)"/>
  <circle cx="60.65" cy="66.90" r="2.79" fill="#ffffff" opacity="0.9"/>
  <circle cx="76.44" cy="58.20" r="8.2" fill="url(#sil)"/>
  <circle cx="74.34" cy="55.80" r="2.79" fill="#ffffff" opacity="0.9"/>
  <circle cx="93.54" cy="54.21" r="8.2" fill="url(#sil)"/>
  <circle cx="91.44" cy="51.81" r="2.79" fill="#ffffff" opacity="0.9"/>
  <circle cx="110.58" cy="58.67" r="8.2" fill="url(#sil)"/>
  <circle cx="108.48" cy="56.27" r="2.79" fill="#ffffff" opacity="0.9"/>
  <circle cx="123.57" cy="70.42" r="8.2" fill="url(#sil)"/>
  <circle cx="121.47" cy="68.02" r="2.79" fill="#ffffff" opacity="0.9"/>
  <text x="130.0" y="120.0" text-anchor="middle"
    font-family="Georgia, 'Times New Roman', serif" font-size="42" font-weight="700"
    fill="url(#silv2)" letter-spacing="1">ΣΦΕ</text>
  <g transform="translate(130.0 172.0) rotate(35)"><rect x="-30" y="-4.6" width="60" height="9.2" rx="4.6" fill="url(#sil)"/><circle cx="-30" cy="0" r="6.4" fill="url(#sil)"/><circle cx="30" cy="0" r="6.4" fill="url(#sil)"/><circle cx="-30" cy="-6.5" r="4.4" fill="url(#sil)"/><circle cx="-30" cy="6.5" r="4.4" fill="url(#sil)"/><circle cx="30" cy="-6.5" r="4.4" fill="url(#sil)"/><circle cx="30" cy="6.5" r="4.4" fill="url(#sil)"/></g>
  <g transform="translate(130.0 172.0) rotate(-35)"><rect x="-30" y="-4.6" width="60" height="9.2" rx="4.6" fill="url(#sil)"/><circle cx="-30" cy="0" r="6.4" fill="url(#sil)"/><circle cx="30" cy="0" r="6.4" fill="url(#sil)"/><circle cx="-30" cy="-6.5" r="4.4" fill="url(#sil)"/><circle cx="-30" cy="6.5" r="4.4" fill="url(#sil)"/><circle cx="30" cy="-6.5" r="4.4" fill="url(#sil)"/><circle cx="30" cy="6.5" r="4.4" fill="url(#sil)"/></g>
  <path d="M 115.0 164.0 C 115.0 146.0, 145.0 146.0, 145.0 164.0 C 145.0 174.0, 141.0 177.0, 139.0 179.0 L 139.0 183.0 C 139.0 187.0, 121.0 187.0, 121.0 183.0 L 121.0 179.0 C 119.0 177.0, 115.0 174.0, 115.0 164.0 Z M 119.6 163.0 a 4.0 4.0 0 1 0 8.0 0 a 4.0 4.0 0 1 0 -8.0 0 Z M 132.4 163.0 a 4.0 4.0 0 1 0 8.0 0 a 4.0 4.0 0 1 0 -8.0 0 Z M 130.0 168.5 L 127.6 173.0 L 132.4 173.0 Z" fill="url(#silv2)" fill-rule="evenodd"/>
  <line x1="123.6" y1="179.0" x2="123.6" y2="184.5" stroke="#aab2bf" stroke-width="1.1"/>
  <line x1="126.8" y1="179.0" x2="126.8" y2="184.5" stroke="#aab2bf" stroke-width="1.1"/>
  <line x1="130.0" y1="179.0" x2="130.0" y2="184.5" stroke="#aab2bf" stroke-width="1.1"/>
  <line x1="133.2" y1="179.0" x2="133.2" y2="184.5" stroke="#aab2bf" stroke-width="1.1"/>
  <line x1="136.4" y1="179.0" x2="136.4" y2="184.5" stroke="#aab2bf" stroke-width="1.1"/>
</svg>